<?xml version="1.0" encoding="UTF-8" standalone="no"?>
<svg width="84px" height="48px" viewBox="0 0 84 48" version="1.1" xmlns="http://www.w3.org/2000/svg" xmlns:xlink="http://www.w3.org/1999/xlink">
    <!-- Generator: Sketch 3.6.1 (26313) - http://www.bohemiancoding.com/sketch -->
    <title>maestro</title>
    <desc>Created with Sketch.</desc>
    <defs></defs>
    <g id="Page-1" stroke="none" stroke-width="1" fill="none" fill-rule="evenodd">
        <g id="Footer_icons_02" transform="translate(-676.000000, -127.000000)">
            <g id="maestro" transform="translate(676.000000, 127.000000)">
                <rect id="Rectangle-192-Copy-5" fill-opacity="0.0999773551" fill="#FFFFFF" x="0" y="0" width="84" height="48"></rect>
                <g id="Group-Copy-12" transform="translate(15.000000, 8.000000)">
                    <path d="M52.5741123,15.9204435 C52.5741123,24.6458197 45.6213471,31.7181954 37.0425717,31.7181954 C28.4655145,31.7181954 21.5117675,24.6458197 21.5117675,15.9204435 C21.5117675,7.19481765 28.4655145,0.122192335 37.0425717,0.122192335 C45.6213471,0.122192335 52.5741123,7.19481765 52.5741123,15.9204435" id="Fill-356" fill="#CC0000"></path>
                    <path d="M25.0448542,25.9527911 C24.6160136,25.4237611 24.2210483,24.8647717 23.8619219,24.2795681 L29.3663989,24.2795681 C29.6968049,23.7432979 29.9950541,23.1845582 30.2613919,22.6065948 L22.9674198,22.6065948 C22.7187561,22.0653313 22.4978308,21.507091 22.3097988,20.9341207 L30.9177855,20.9341207 C31.4362236,19.3587645 31.7163078,17.6735578 31.7163078,15.9204435 C31.7163078,14.7725057 31.5960262,13.6530291 31.3677367,12.5749961 L21.861075,12.5749961 C21.9813565,12.0050218 22.1330586,11.4472808 22.3117626,10.9020228 L30.9168036,10.9020228 C30.7280352,10.3290525 30.5083373,9.77106181 30.259919,9.22979838 L22.9688927,9.22979838 C23.2352304,8.65183489 23.534216,8.09409389 23.8636402,7.55657536 L29.3646805,7.55657536 C29.0057996,6.97286969 28.6098524,6.41487902 28.1817482,5.88509996 L25.046818,5.88509996 C25.5291716,5.28966026 26.0532555,4.73067095 26.6144058,4.21312525 C23.8577489,1.67083489 20.1989802,0.122192335 16.1857491,0.122192335 C7.60746457,0.122192335 0.653717539,7.19481765 0.653717539,15.9204435 C0.653717539,24.6458197 7.60746457,31.7181954 16.1857491,31.7181954 C20.1992256,31.7181954 23.8582398,30.1695528 26.6144058,27.6282611 C27.1762926,27.1097167 27.7011129,26.5494791 28.1834665,25.9527911 L25.0448542,25.9527911" id="Fill-357" fill="#0066CC"></path>
                    <path d="M26.3929896,20.1896338 C25.7292318,20.3683906 25.087321,20.4557717 24.4088348,20.4542737 C22.2440122,20.4522764 21.1165566,19.4493912 21.1165566,17.5315011 C21.1165566,15.2908004 22.5518348,13.642793 24.5001506,13.642793 C26.0937585,13.642793 27.1109969,14.5667856 27.1109969,16.0145654 C27.1109969,16.4949118 27.0422645,16.9630247 26.8736249,17.6246244 L23.0238785,17.6246244 C22.8869048,18.5613497 23.5592542,18.9725401 24.7038928,18.9725401 C25.3894977,18.9725401 26.009316,18.8472107 26.6961482,18.5663429 L26.3929896,20.1896338 L26.3929896,20.1896338 Z M25.3578318,16.3031727 C25.3578318,16.161865 25.5718838,15.1562335 24.4576838,15.134513 C23.8425296,15.134513 23.4014153,15.550447 23.2229568,16.3031727 L25.3578318,16.3031727 L25.3578318,16.3031727 Z" id="Fill-359" fill="#000066"></path>
                    <path d="M27.6971854,15.8637706 C27.6971854,16.6913944 28.1552372,17.263366 29.1967773,17.6890367 C29.9928449,18.0205856 30.1180359,18.1167048 30.1180359,18.4130515 C30.1180359,18.8237426 29.7665191,19.0119864 28.9854254,19.0069932 C28.3989914,19.002749 27.8636158,18.9300979 27.2320148,18.7520901 L26.9524216,20.2617857 C27.5140628,20.3943553 28.3012934,20.4377961 28.9991719,20.4542737 C31.0780791,20.4542737 32.0378769,19.7619658 32.0378769,18.2655023 C32.0378769,17.3657267 31.6375111,16.8366966 30.6502204,16.4422334 C29.8249416,16.1066901 29.7282254,16.0345382 29.7282254,15.7307017 C29.7282254,15.3741869 30.0551949,15.1939322 30.6926872,15.1939322 C31.0793065,15.1939322 31.6082999,15.2298833 32.1105367,15.291799 L32.3920938,13.7738647 C31.8805289,13.7017128 31.1045901,13.6437917 30.6551299,13.6437917 C28.4527499,13.6437917 27.6905576,14.6521694 27.6971854,15.8637706" id="Fill-360" fill="#000066"></path>
                    <path d="M20.0612701,20.3461708 L18.446306,20.3461708 L18.4848452,19.6581072 C17.9924272,20.2008686 17.336279,20.4537744 16.4461955,20.4537744 C15.3926272,20.4537744 14.6709378,19.7210215 14.6709378,18.6672056 C14.6709378,17.0653854 15.9255482,16.1413928 18.0827611,16.1413928 C18.3044229,16.1413928 18.5864708,16.1583697 18.8761285,16.1915745 C18.9360238,15.9771164 18.952225,15.8847421 18.952225,15.7684004 C18.952225,15.329997 18.6127364,15.1684668 17.7049788,15.1684668 C16.8099858,15.1719621 16.2061233,15.3070283 15.6457094,15.46007 L15.9216206,13.9905698 C16.8907463,13.7399109 17.5250474,13.642793 18.2430547,13.642793 C19.9134956,13.642793 20.795724,14.3093859 20.795724,15.5611824 C20.8097159,15.8954775 20.6955712,16.5660649 20.6378851,16.8596654 C20.5725894,17.2863348 20.1096282,19.7619658 20.0612701,20.3461708 L20.0612701,20.3461708 Z M18.643666,17.4236479 C18.4391873,17.4031758 18.3500808,17.3969342 18.2099159,17.3969342 C17.1084805,17.3969342 16.5500304,17.7304803 16.5500304,18.3888344 C16.5500304,18.8022718 16.8225049,19.0606702 17.247418,19.0606702 C18.0388215,19.0606702 18.6102817,18.3873365 18.643666,17.4236479 L18.643666,17.4236479 Z" id="Fill-361" fill="#000066"></path>
                    <path d="M35.4406177,20.2423122 C34.9108878,20.3898614 34.4977575,20.4542737 34.0512429,20.4542737 C33.0619884,20.4542737 32.5217033,19.9399736 32.5217033,19.0242198 C32.4905283,18.7725622 32.7323188,17.6101441 32.7873046,17.2863348 C32.8417995,16.9615268 33.6987443,12.2264704 33.6987443,12.2264704 L35.6207945,12.2264704 L35.330155,13.7933382 L36.3159729,13.7933382 L36.0481623,15.3919128 L35.0579259,15.3919128 C35.0579259,15.3919128 34.5146951,18.1673858 34.5146951,18.379597 C34.5146951,18.7158894 34.7150007,18.8621903 35.1752618,18.8621903 C35.3952052,18.8621903 35.5653177,18.8412188 35.6966456,18.8012732 L35.4406177,20.2423122" id="Fill-362" fill="#000066"></path>
                    <path d="M44.0289665,13.642793 C42.6201995,13.642793 41.5195004,14.2332395 40.8800444,15.2178996 L41.4350579,13.7568878 C40.4124191,13.3751572 39.7530798,13.9201656 39.1573179,14.6946117 C39.1573179,14.6946117 39.0574105,14.8231867 38.9577487,14.9407767 L38.9577487,13.7925892 L37.1530343,13.7925892 C36.9085436,15.8190814 36.4762664,17.8742847 36.1382507,19.9052708 L36.0565083,20.3469198 L37.9979509,20.3469198 C38.1823008,19.3163223 38.3335119,18.4799604 38.4842321,17.8128682 C38.896626,15.9828586 39.5908224,15.4236196 40.6328535,15.6712826 C40.3922904,16.1968174 40.2604716,16.8059884 40.2604716,17.4798215 C40.2604716,19.1158451 41.1333721,20.4542737 43.3021223,20.4542737 C45.4902648,20.4542737 47.0747902,19.2653916 47.0747902,16.5543309 C47.0747902,14.9193059 46.0187672,13.642793 44.0289665,13.642793 L44.0289665,13.642793 Z M43.4638887,18.8641876 C42.7782838,18.8749229 42.3624533,18.2897193 42.3624533,17.4139111 C42.3624533,16.3763231 42.969016,15.2036689 43.9437876,15.2036689 C44.7302817,15.2036689 44.9995651,15.8380556 44.9995651,16.5138859 C44.9995651,17.9898774 44.4047851,18.8641876 43.4638887,18.8641876 L43.4638887,18.8641876 Z" id="Fill-363" fill="#000066"></path>
                    <path d="M13.7663714,20.3469198 L11.832784,20.3469198 L12.9818411,14.1892993 L10.3363832,20.3469198 L8.57389009,20.3469198 L8.25183007,14.2255001 L7.09909087,20.3469198 L5.34494387,20.3469198 L6.83888995,12.3373196 L9.86041184,12.3373196 L10.1120212,16.8024932 L12.0262163,12.3373196 L15.2902651,12.3373196 L13.7663714,20.3469198" id="Fill-364" fill="#000066"></path>
                    <path d="M26.8780434,19.6960555 C26.2147765,19.8750619 25.5726203,19.962443 24.8943795,19.9609451 C22.7295569,19.9589478 21.6021014,18.9558129 21.6021014,17.0381725 C21.6021014,14.7974717 23.0371341,13.1494644 24.9852044,13.1494644 C26.5790578,13.1494644 27.5965416,14.073457 27.5965416,15.5209871 C27.5965416,16.0013334 27.5275638,16.4684478 27.3591696,17.1312957 L23.5096688,17.1312957 C23.3724496,18.0670224 24.044308,18.4789618 25.1889466,18.4789618 C25.8745515,18.4789618 26.4948607,18.3536323 27.1814475,18.0722652 L26.8780434,19.6960555 L26.8780434,19.6960555 Z M25.8428856,15.809844 C25.8428856,15.6682867 26.0569376,14.6629048 24.9432286,14.6409347 C24.3280743,14.6409347 23.8869601,15.0568687 23.7080106,15.809844 L25.8428856,15.809844 L25.8428856,15.809844 Z" id="Fill-366" fill="#FFFFFF"></path>
                    <path d="M28.1827301,15.3699427 C28.1827301,16.1978161 28.6405365,16.7692884 29.6818311,17.1954584 C30.4783896,17.5272569 30.6033351,17.6231264 30.6033351,17.9187242 C30.6033351,18.3301643 30.251573,18.5184081 29.4712156,18.5136646 C28.8840453,18.5091707 28.3486696,18.4365195 27.7175596,18.2585118 L27.4374754,19.767708 C27.9993621,19.9007769 28.7870836,19.9442178 29.4842257,19.9609451 C31.5631329,19.9609451 32.5234216,19.2683875 32.5234216,17.7714246 C32.5234216,16.8721484 32.1228104,16.342619 31.1355197,15.9486551 C30.3102409,15.6133614 30.2132792,15.5402109 30.2132792,15.2373731 C30.2132792,14.8808582 30.5407396,14.6998545 31.1779864,14.6998545 C31.5646057,14.6998545 32.0933537,14.7365546 32.595836,14.7984703 L32.8773931,13.280536 C32.3658282,13.2073855 31.5898894,13.1502133 31.1409201,13.1502133 C28.9380492,13.1502133 28.1758569,14.1580918 28.1827301,15.3699427" id="Fill-367" fill="#FFFFFF"></path>
                    <path d="M20.5468148,19.8525925 L18.9313598,19.8525925 L18.9703899,19.1645288 C18.4777265,19.7067909 17.8220693,19.9594471 16.9317402,19.9594471 C15.8784174,19.9594471 15.1559916,19.2269439 15.1559916,18.173128 C15.1559916,16.5718071 16.4108474,15.6478145 18.5680604,15.6478145 C18.7897221,15.6478145 19.0715246,15.6650411 19.3616732,15.6969976 C19.4215685,15.4830387 19.4375242,15.3914134 19.4375242,15.2748221 C19.4375242,14.83542 19.0982812,14.6746388 18.1907691,14.6746388 C17.2955306,14.6783838 16.6916681,14.8134499 16.1314996,14.9667413 L16.4066744,13.4969914 C17.3760456,13.2463325 18.0101012,13.1494644 18.7285995,13.1494644 C20.3990403,13.1494644 21.2810233,13.8153083 21.2810233,15.0676041 C21.2955061,15.4021488 21.180625,16.071488 21.1236753,16.3660871 C21.0576432,16.7927564 20.5949274,19.2683875 20.5468148,19.8525925 L20.5468148,19.8525925 Z M19.1289652,16.9303192 C18.924732,16.9088485 18.83538,16.9033559 18.6949697,16.9033559 C17.5940252,16.9033559 17.0353297,17.2364027 17.0353297,17.8942575 C17.0353297,18.3084438 17.3082952,18.5673415 17.7324718,18.5673415 C18.5243663,18.5673415 19.0958264,17.8932588 19.1289652,16.9303192 L19.1289652,16.9303192 Z" id="Fill-368" fill="#FFFFFF"></path>
                    <path d="M35.9259169,19.7487338 C35.3959417,19.8965327 34.9830568,19.9609451 34.5362967,19.9609451 C33.5470422,19.9609451 33.0072481,19.4463953 33.0072481,18.5306415 C32.9758276,18.2789839 33.217618,17.1165658 33.2723584,16.7927564 C33.3273443,16.4679484 34.184289,11.7328921 34.184289,11.7328921 L36.1060938,11.7328921 L35.8156998,13.2992605 L36.8015176,13.2992605 L36.5334616,14.8983344 L35.5434707,14.8983344 C35.5434707,14.8983344 34.9997489,17.6738075 34.9997489,17.88502 C34.9997489,18.2225607 35.2003,18.367863 35.6605611,18.367863 C35.8805045,18.367863 36.0503715,18.3478902 36.1824358,18.3074452 L35.9259169,19.7487338" id="Fill-369" fill="#FFFFFF"></path>
                    <path d="M45.4853553,16.019309 C45.4853553,17.4965487 44.8898389,18.3708589 43.9489425,18.3708589 C43.2633376,18.3808453 42.8477525,17.7963907 42.8477525,16.9205825 C42.8477525,15.8829945 43.4543153,14.7100906 44.4288414,14.7100906 C45.215581,14.7100906 45.4853553,15.3444773 45.4853553,16.019309 L45.4853553,16.019309 Z M47.5600895,16.0607526 C47.5600895,14.4259772 46.503821,13.1494644 44.5145113,13.1494644 C42.2259705,13.1494644 40.7457709,14.7008532 40.7457709,16.9864928 C40.7457709,18.6222668 41.6186714,19.9609451 43.787667,19.9609451 C45.9758095,19.9609451 47.5600895,18.7720629 47.5600895,16.0607526 L47.5600895,16.0607526 Z" id="Fill-370" fill="#FFFFFF"></path>
                    <path d="M37.6380881,13.2985115 C37.3938429,15.3255031 36.9613202,17.3804567 36.62355,19.4111932 L36.5420531,19.8535911 L38.4832502,19.8535911 C39.182847,15.9311789 39.4177643,14.8139493 40.883972,15.2071642 L41.5892147,13.3514395 C40.5663304,12.969709 39.9082185,13.514967 39.3124565,14.2899124 C39.366215,13.941137 39.4673497,13.6043453 39.443048,13.2985115 L37.6380881,13.2985115" id="Fill-371" fill="#FFFFFF"></path>
                    <path d="M14.2516707,19.8535911 L12.3185742,19.8535911 L13.4673858,13.6959707 L10.8216824,19.8535911 L9.05918936,19.8535911 L8.73688387,13.7319217 L7.58414467,19.8535911 L5.83024315,19.8535911 L7.32394375,11.8437412 L10.3457111,11.8437412 L10.5052683,16.8024932 L12.6322881,11.8437412 L15.7755644,11.8437412 L14.2516707,19.8535911" id="Fill-372" fill="#FFFFFF"></path>
                </g>
            </g>
        </g>
    </g>
</svg>