<?xml version="1.0" encoding="UTF-8"?>
<svg width="73px" height="48px" viewBox="0 0 73 48" version="1.1" xmlns="http://www.w3.org/2000/svg" xmlns:xlink="http://www.w3.org/1999/xlink">
    <g id="Symbols" stroke="none" stroke-width="1" fill="none" fill-rule="evenodd">
        <g id="Mastercard" fill-rule="nonzero">
            <g id="mc_acc" transform="translate(12.000000, 8.000000)">
                <g id="Layer_1">
                    <g id="Group">
                        <rect id="XMLID_21_" fill="#000000" x="0.235294118" y="0.237037037" width="49.5" height="31.5259259"></rect>
                        <g transform="translate(7.647059, 2.370370)">
                            <path d="M6.41176471,26.7555556 L6.41176471,24.9777778 C6.41176471,24.2962963 6,23.8518519 5.32352941,23.8518519 C4.97058824,23.8518519 4.58823529,23.9703704 4.32352941,24.3555556 C4.11764706,24.0296296 3.82352941,23.8518519 3.38235294,23.8518519 C3.08823529,23.8518519 2.76470588,23.9407407 2.52941176,24.2666667 L2.52941176,23.9111111 L1.97058824,23.9111111 L1.97058824,26.7555556 L2.52941176,26.7555556 L2.52941176,25.1259259 C2.52941176,24.6222222 2.82352941,24.3851852 3.23529412,24.3851852 C3.64705882,24.3851852 3.88235294,24.6518519 3.88235294,25.1259259 L3.88235294,26.7555556 L4.44117647,26.7555556 L4.44117647,25.1259259 C4.44117647,24.6222222 4.73529412,24.3851852 5.14705882,24.3851852 C5.55882353,24.3851852 5.79411765,24.6518519 5.79411765,25.1259259 L5.79411765,26.7555556 L6.41176471,26.7555556 Z M15.5882353,23.9407407 L14.5588235,23.9407407 L14.5588235,23.0814815 L14,23.0814815 L14,23.9407407 L13.4117647,23.9407407 L13.4117647,24.4444444 L14,24.4444444 L14,25.7777778 C14,26.4296296 14.2352941,26.8148148 14.9411765,26.8148148 C15.2058824,26.8148148 15.5,26.7259259 15.7058824,26.6074074 L15.5294118,26.1037037 C15.3529412,26.2222222 15.1470588,26.2518519 15,26.2518519 C14.7058824,26.2518519 14.5588235,26.0740741 14.5588235,25.7777778 L14.5588235,24.4148148 L15.5882353,24.4148148 L15.5882353,23.9407407 Z M20.8235294,23.8518519 C20.4705882,23.8518519 20.2058824,24.0296296 20.0588235,24.2666667 L20.0588235,23.9111111 L19.5,23.9111111 L19.5,26.7555556 L20.0588235,26.7555556 L20.0588235,25.1555556 C20.0588235,24.6814815 20.2941176,24.3851852 20.6764706,24.3851852 C20.7941176,24.3851852 20.9411765,24.4148148 21.0588235,24.4444444 L21.2352941,23.9111111 C21.1176471,23.8814815 20.9411765,23.8518519 20.8235294,23.8518519 L20.8235294,23.8518519 Z M12.9117647,24.1481481 C12.6176471,23.9407407 12.2058824,23.8518519 11.7647059,23.8518519 C11.0588235,23.8518519 10.6176471,24.1777778 10.6176471,24.7407407 C10.6176471,25.2148148 10.9411765,25.4814815 11.5588235,25.5703704 L11.8529412,25.6 C12.1764706,25.6592593 12.3823529,25.7777778 12.3823529,25.9259259 C12.3823529,26.1333333 12.1470588,26.2814815 11.7058824,26.2814815 C11.2647059,26.2814815 10.9705882,26.1333333 10.7647059,25.9851852 L10.4705882,26.4296296 C10.8823529,26.7259259 11.3823529,26.7851852 11.6764706,26.7851852 C12.5,26.7851852 12.9411765,26.4 12.9411765,25.8666667 C12.9411765,25.362963 12.5882353,25.1259259 11.9705882,25.037037 L11.6764706,25.0074074 C11.4117647,24.9777778 11.1764706,24.8888889 11.1764706,24.7111111 C11.1764706,24.5037037 11.4117647,24.3555556 11.7352941,24.3555556 C12.0882353,24.3555556 12.4411765,24.5037037 12.6176471,24.5925926 L12.9117647,24.1481481 Z M21.4411765,25.3333333 C21.4411765,26.1925926 22,26.8148148 22.9117647,26.8148148 C23.3235294,26.8148148 23.6176471,26.7259259 23.9117647,26.4888889 L23.6176471,26.0444444 C23.3823529,26.2222222 23.1470588,26.3111111 22.8823529,26.3111111 C22.3823529,26.3111111 22,25.9259259 22,25.362963 C22,24.8 22.3823529,24.4148148 22.8823529,24.4148148 C23.1470588,24.4148148 23.3823529,24.5037037 23.6176471,24.6814815 L23.9117647,24.237037 C23.6176471,24 23.3235294,23.9111111 22.9117647,23.9111111 C22.0294118,23.8518519 21.4411765,24.4740741 21.4411765,25.3333333 L21.4411765,25.3333333 Z M17.5,23.8518519 C16.6764706,23.8518519 16.1176471,24.4444444 16.1176471,25.3333333 C16.1176471,26.2222222 16.7058824,26.8148148 17.5588235,26.8148148 C17.9705882,26.8148148 18.3823529,26.6962963 18.7058824,26.4296296 L18.4117647,26.0148148 C18.1764706,26.1925926 17.8823529,26.3111111 17.5882353,26.3111111 C17.2058824,26.3111111 16.7941176,26.0740741 16.7352941,25.5703704 L18.8235294,25.5703704 L18.8235294,25.3333333 C18.8235294,24.4444444 18.2941176,23.8518519 17.5,23.8518519 L17.5,23.8518519 Z M17.4705882,24.3851852 C17.8823529,24.3851852 18.1764706,24.6518519 18.2058824,25.0962963 L16.6764706,25.0962963 C16.7647059,24.6814815 17.0294118,24.3851852 17.4705882,24.3851852 L17.4705882,24.3851852 Z M9.85294118,25.3333333 L9.85294118,23.9111111 L9.29411765,23.9111111 L9.29411765,24.2666667 C9.08823529,24 8.79411765,23.8518519 8.38235294,23.8518519 C7.58823529,23.8518519 7,24.4740741 7,25.3333333 C7,26.1925926 7.58823529,26.8148148 8.38235294,26.8148148 C8.79411765,26.8148148 9.08823529,26.6666667 9.29411765,26.4 L9.29411765,26.7555556 L9.85294118,26.7555556 L9.85294118,25.3333333 Z M7.58823529,25.3333333 C7.58823529,24.8 7.91176471,24.3851852 8.47058824,24.3851852 C9,24.3851852 9.32352941,24.8 9.32352941,25.3333333 C9.32352941,25.8962963 8.97058824,26.2814815 8.47058824,26.2814815 C7.91176471,26.3111111 7.58823529,25.8666667 7.58823529,25.3333333 L7.58823529,25.3333333 Z M29.3235294,23.8518519 C28.9705882,23.8518519 28.7058824,24.0296296 28.5588235,24.2666667 L28.5588235,23.9111111 L28,23.9111111 L28,26.7555556 L28.5588235,26.7555556 L28.5588235,25.1555556 C28.5588235,24.6814815 28.7941176,24.3851852 29.1764706,24.3851852 C29.2941176,24.3851852 29.4411765,24.4148148 29.5588235,24.4444444 L29.7352941,23.9111111 C29.6176471,23.8814815 29.4411765,23.8518519 29.3235294,23.8518519 L29.3235294,23.8518519 Z M27.1470588,25.3333333 L27.1470588,23.9111111 L26.5882353,23.9111111 L26.5882353,24.2666667 C26.3823529,24 26.0882353,23.8518519 25.6764706,23.8518519 C24.8823529,23.8518519 24.2941176,24.4740741 24.2941176,25.3333333 C24.2941176,26.1925926 24.8823529,26.8148148 25.6764706,26.8148148 C26.0882353,26.8148148 26.3823529,26.6666667 26.5882353,26.4 L26.5882353,26.7555556 L27.1470588,26.7555556 L27.1470588,25.3333333 Z M24.8823529,25.3333333 C24.8823529,24.8 25.2058824,24.3851852 25.7647059,24.3851852 C26.2941176,24.3851852 26.6176471,24.8 26.6176471,25.3333333 C26.6176471,25.8962963 26.2647059,26.2814815 25.7647059,26.2814815 C25.2058824,26.3111111 24.8823529,25.8666667 24.8823529,25.3333333 L24.8823529,25.3333333 Z M32.8235294,25.3333333 L32.8235294,22.7851852 L32.2647059,22.7851852 L32.2647059,24.2666667 C32.0588235,24 31.7647059,23.8518519 31.3529412,23.8518519 C30.5588235,23.8518519 29.9705882,24.4740741 29.9705882,25.3333333 C29.9705882,26.1925926 30.5588235,26.8148148 31.3529412,26.8148148 C31.7647059,26.8148148 32.0588235,26.6666667 32.2647059,26.4 L32.2647059,26.7555556 L32.8235294,26.7555556 L32.8235294,25.3333333 Z M30.5588235,25.3333333 C30.5588235,24.8 30.8823529,24.3851852 31.4411765,24.3851852 C31.9705882,24.3851852 32.2941176,24.8 32.2941176,25.3333333 C32.2941176,25.8962963 31.9411765,26.2814815 31.4411765,26.2814815 C30.8823529,26.3111111 30.5588235,25.8666667 30.5588235,25.3333333 Z" id="XMLID_567_" fill="#FFFFFF"></path>
                            <g id="XMLID_328_">
                                <rect id="Rectangle-path" fill="#FF5F00" x="12.2647059" y="2.34074074" width="10.2058824" height="16.7703704"></rect>
                                <path d="M13.2941176,10.7259259 C13.2941176,7.31851852 14.8823529,4.2962963 17.3235294,2.34074074 C15.5294118,0.918518519 13.2647059,0.0592592593 10.7941176,0.0592592593 C4.94117647,0.0592592593 0.205882353,4.82962963 0.205882353,10.7259259 C0.205882353,16.6222222 4.94117647,21.3925926 10.7941176,21.3925926 C13.2647059,21.3925926 15.5294118,20.5333333 17.3235294,19.1111111 C14.8823529,17.1555556 13.2941176,14.1333333 13.2941176,10.7259259 Z" id="XMLID_330_" fill="#EB001B"></path>
                                <path d="M34.4705882,10.7259259 C34.4705882,16.6222222 29.7352941,21.3925926 23.8823529,21.3925926 C21.4117647,21.3925926 19.1470588,20.5333333 17.3529412,19.1111111 C19.8235294,17.1555556 21.3823529,14.1333333 21.3823529,10.7259259 C21.3823529,7.31851852 19.7941176,4.2962963 17.3529412,2.34074074 C19.1470588,0.918518519 21.4117647,0.0592592593 23.8823529,0.0592592593 C29.7352941,0.0592592593 34.4705882,4.82962963 34.4705882,10.7259259 Z" id="Shape" fill="#F79E1B"></path>
                            </g>
                        </g>
                    </g>
                </g>
            </g>
        </g>
    </g>
</svg>