<svg xmlns="http://www.w3.org/2000/svg" xmlns:xlink="http://www.w3.org/1999/xlink" version="1.1" id="Layer_1" x="0px" y="0px" viewBox="0 0 1469.8 169.8" enable-background="new 0 0 1469.8 169.8" xml:space="preserve">
<!--<g xmlns="http://www.w3.org/2000/svg" stroke="#222222" fill="#f9d71c">-->
	<!--&lt;!&ndash;<path d="M379,118.5c8.7,6,19.2,9.5,30.6,9.5c11.4,0,21.9-3.5,30.6-9.5H379z"/>&ndash;&gt;-->
	<!--<path d="M355.6,74c0,2.7,0.2,5.4,0.6,8H463c0.4-2.6,0.6-5.2,0.6-8c0-0.8,0-1.7-0.1-2.5H355.7C355.6,72.4,355.6,73.2,355.6,74z"/>-->
	<!--<path d="M360.3,52c-1.1,2.4-2,4.9-2.7,7.5h104c-0.7-2.6-1.6-5.1-2.7-7.5H360.3z"/>-->
	<!--<path d="M359.4,94c1.8,4.5,4.1,8.7,7,12.5h86.3c2.9-3.8,5.2-8,7-12.5H359.4z"/>-->
	<!--<path d="M371.2,36c-1.2,1.3-2.4,2.6-3.6,4h83.8c-1.1-1.4-2.3-2.7-3.6-4H371.2z"/>-->
	<!--<path d="M429.9,24c-6.3-2.5-13.1-4-20.3-4s-14,1.4-20.3,4H429.9z"/>-->
<!--</g>-->
<svg x="25%" y="10%">
	<g xmlns="http://www.w3.org/2000/svg">
		<path style="stroke:#04802a;fill:#055d20;" d="M30,0c-0.552,0-1,0.448-1,1v6c0,0.552,0.448,1,1,1s1-0.448,1-1V1C31,0.448,30.552,0,30,0z"/>
		<path style="stroke:#04802a;fill:#055d20" d="M30,52c-0.552,0-1,0.448-1,1v6c0,0.552,0.448,1,1,1s1-0.448,1-1v-6C31,52.448,30.552,52,30,52z"/>
		<path style="stroke:#04802a;fill:#055d20" d="M59,29h-6c-0.552,0-1,0.448-1,1s0.448,1,1,1h6c0.552,0,1-0.448,1-1S59.552,29,59,29z"/>
		<path style="stroke:#04802a;fill:#055d20" d="M8,30c0-0.552-0.448-1-1-1H1c-0.552,0-1,0.448-1,1s0.448,1,1,1h6C7.552,31,8,30.552,8,30z"/>
		<path style="stroke:#04802a;fill:#055d20" d="M46.264,14.736c0.256,0,0.512-0.098,0.707-0.293l5.736-5.736c0.391-0.391,0.391-1.023,0-1.414   s-1.023-0.391-1.414,0l-5.736,5.736c-0.391,0.391-0.391,1.023,0,1.414C45.752,14.639,46.008,14.736,46.264,14.736z"/>
		<path style="stroke:#04802a;fill:#055d20" d="M13.029,45.557l-5.736,5.736c-0.391,0.391-0.391,1.023,0,1.414C7.488,52.902,7.744,53,8,53   s0.512-0.098,0.707-0.293l5.736-5.736c0.391-0.391,0.391-1.023,0-1.414S13.42,45.166,13.029,45.557z"/>
		<path style="stroke:#04802a;fill:#055d20" d="M46.971,45.557c-0.391-0.391-1.023-0.391-1.414,0s-0.391,1.023,0,1.414l5.736,5.736   C51.488,52.902,51.744,53,52,53s0.512-0.098,0.707-0.293c0.391-0.391,0.391-1.023,0-1.414L46.971,45.557z"/>
		<path style="stroke:#04802a;fill:#055d20" d="M8.707,7.293c-0.391-0.391-1.023-0.391-1.414,0s-0.391,1.023,0,1.414l5.736,5.736   c0.195,0.195,0.451,0.293,0.707,0.293s0.512-0.098,0.707-0.293c0.391-0.391,0.391-1.023,0-1.414L8.707,7.293z"/>
		<path style="stroke:#04802a;fill:#055d20" d="M50.251,21.404c0.162,0.381,0.532,0.61,0.921,0.61c0.13,0,0.263-0.026,0.39-0.08l2.762-1.172   c0.508-0.216,0.746-0.803,0.53-1.311s-0.804-0.746-1.311-0.53l-2.762,1.172C50.272,20.309,50.035,20.896,50.251,21.404z"/>
		<path style="stroke:#04802a;fill:#055d20" d="M9.749,38.596c-0.216-0.508-0.803-0.746-1.311-0.53l-2.762,1.172   c-0.508,0.216-0.746,0.803-0.53,1.311c0.162,0.381,0.532,0.61,0.921,0.61c0.13,0,0.263-0.026,0.39-0.08l2.762-1.172   C9.728,39.691,9.965,39.104,9.749,38.596z"/>
		<path style="stroke:#04802a;fill:#055d20" d="M54.481,38.813L51.7,37.688c-0.511-0.207-1.095,0.041-1.302,0.553   c-0.207,0.512,0.041,1.095,0.553,1.302l2.782,1.124c0.123,0.049,0.25,0.073,0.374,0.073c0.396,0,0.771-0.236,0.928-0.626   C55.241,39.603,54.994,39.02,54.481,38.813z"/>
		<path style="stroke:#04802a;fill:#055d20" d="M5.519,21.188L8.3,22.312c0.123,0.049,0.25,0.073,0.374,0.073c0.396,0,0.771-0.236,0.928-0.626   c0.207-0.512-0.041-1.095-0.553-1.302l-2.782-1.124c-0.513-0.207-1.095,0.04-1.302,0.553C4.759,20.397,5.006,20.98,5.519,21.188z"/>
		<path style="stroke:#04802a;fill:#055d20" d="M39.907,50.781c-0.216-0.508-0.803-0.745-1.311-0.53c-0.508,0.216-0.746,0.803-0.53,1.311   l1.172,2.762c0.162,0.381,0.532,0.61,0.921,0.61c0.13,0,0.263-0.026,0.39-0.08c0.508-0.216,0.746-0.803,0.53-1.311L39.907,50.781z"/>
		<path style="stroke:#04802a;fill:#055d20" d="M21.014,9.829c0.13,0,0.263-0.026,0.39-0.08c0.508-0.216,0.746-0.803,0.53-1.311l-1.172-2.762   c-0.215-0.509-0.802-0.747-1.311-0.53c-0.508,0.216-0.746,0.803-0.53,1.311l1.172,2.762C20.254,9.6,20.625,9.829,21.014,9.829z"/>
		<path style="stroke:#04802a;fill:#055d20" d="M21.759,50.398c-0.511-0.205-1.095,0.04-1.302,0.553l-1.124,2.782   c-0.207,0.512,0.041,1.095,0.553,1.302c0.123,0.049,0.25,0.073,0.374,0.073c0.396,0,0.771-0.236,0.928-0.626l1.124-2.782   C22.519,51.188,22.271,50.605,21.759,50.398z"/>
		<path style="stroke:#04802a;fill:#055d20" d="M38.615,9.675c0.396,0,0.771-0.236,0.928-0.626l1.124-2.782c0.207-0.512-0.041-1.095-0.553-1.302   c-0.511-0.207-1.095,0.041-1.302,0.553L37.688,8.3c-0.207,0.512,0.041,1.095,0.553,1.302C38.364,9.651,38.491,9.675,38.615,9.675z"/>
	</g>
	<circle xmlns="http://www.w3.org/2000/svg" style="fill:#055d20;stroke:#04802a;" cx="30" cy="30" r="20"/>
	<circle xmlns="http://www.w3.org/2000/svg" style="fill:#055d20;stroke:#04802a;" cx="30" cy="30" r="15"/>
</svg>
	<path fill="#055d20" stroke="#04802a" stroke-width="2" stroke-miterlimit="10" d="M1470.6,160.4c-26.5-1.7-52.6-5.5-77-17.2  c-18.8-9-37.2-18.7-56.3-26.7c-18.7-7.8-27.9-3-36.3,15.6c-2.2,5-6.3,9.1-9.5,13.6c-2.4-4.7-4.7-9.4-7.3-14c-5-9-9.3-18.6-15.6-26.6  c-6.9-8.7-16.4-14.4-28.4-14.9c-18.6-0.8-37.2-2.9-55.8-2.9c-11.5,0-20.7-3.5-29.8-9.8c-17.7-12.3-36.4-22.7-57.6-27.4  c-4.2-0.9-9.4-1.1-13.3,0.5c-31.1,12.8-62.2,25.7-92.8,39.5c-9.4,4.2-18.3,10.1-26.1,16.8c-14.7,12.4-14.4,23.8-0.4,37  c1.1,1,2.7,1.4,4,2.1c-0.6,0.8-1.2,1.6-1.8,2.5c-3.5-1.5-6.9-3-10.4-4.6c-22.9-10-45.5-20.9-68.9-29.8c-25.7-9.7-51.4-5.7-77.2,2.8  c-17.6,5.8-36.2,8.2-54.2,13.1c-14.1,3.8-27.9,9-41.8,13.7c-5.4,1.8-10.8,3.9-16.2,5.8c-0.6-0.9-1.2-1.7-1.9-2.6  c5.1-4.1,9.6-9.4,15.3-11.9c15.4-6.7,31.1-12.9,47.1-17.9c28.9-8.9,57.9-17.9,87.5-24.3c12.5-2.7,26.5,1.5,39.9,2.4  c12.2,0.8,24.3,1.4,36.5,1.7c3,0.1,6.1-1.5,10.5-2.8c-7.7-11.3-17-18.6-28.1-21.8c-22.8-6.7-46.1-11.6-69.1-17.8  c-5.5-1.5-11.6-4.1-15.5-8.1c-17.7-17.9-39.8-50.9-63.7-32.4c-3.5-0.8-7.6-0.9-10.9,0.2c-31.9,10.4-64.5,19.4-95.3,32.4  c-17.9,7.6-33.6,21-49.5,32.9c-33,24.7-69.8,38.4-110.6,41.3c28.2-15.3,56.4-30.7,84.6-46c-0.3-1.3-0.6-2.5-1-3.8  c-4.5,0-9-0.3-13.5,0c-2.3,1.9-54.2,11.9-79.1,24.7c-21.3,10.9-43,20.7-66.7,25.1c-3,0.6-5.6,3.3-8.3,5.2c-9.5,7-18.1,16-28.6,20.6  c-20.3,8.8-41.7,15.2-62.7,22.5c-0.6-0.9-1.2-1.8-1.9-2.6c2.1-2.5,3.9-5.4,6.4-7.6c9.3-8.4,19.1-16.3,28.2-24.8  c8.6-8,7.8-10-2.9-13.8c-21-7.5-41.8-15.5-62.9-22.9c-3.8-1.3-8.6-1.8-12.3-0.6c-32.2,10.5-64.9,20.1-96.2,32.8  c-47.1,19-95.5,30-146.1,32.7c-8.2,0.4-106.5,1.1-24.7,1.6c-0.9,0.1-1.7-0.4-5.3-1.2c7.7-4.2,13.6-7.4,19.5-10.5  c10.2-5.4,20.3-11.2,30.7-16.1c7.1-3.3,14.6-7.2,22.2-7.9c45.6-3.9,88.5-18.4,131.6-32.1c46-14.6,92.4-19.9,138.5-2  c34.6,13.4,67,6.1,99.9-5.4c30.3-10.5,60.7-21,91.8-28.8c22.1-5.5,45.3-6.3,68-9.8c9-1.4,17.9-3.6,26.4-6.8  c31.2-11.5,61.7-25.5,93.5-34.9C755-1.8,789.2,5.2,819,27.2c20.2,15,44,19.2,67,26.2c20.5,6.2,41.1,11.9,61.8,17.5  c4.6,1.2,9.8,2.3,14.3,1.3c33-8,66.3-15.1,98.5-25.5c24.7-7.9,46.5-0.1,68.9,6.1c23.8,6.7,46.8,16.7,70.7,22.6  c22.7,5.6,46.4,7.7,69.5,11.7c4,0.7,8.6,2.1,11.3,4.8c6.6,6.5,14.4,10.1,23.1,9.3c40.8-3.8,75.7,13.7,111.1,29.7  c18.9,8.5,37.3,18,56,27.1C1470.9,158.8,1470.8,159.6,1470.6,10.4z"/>
</svg>