<?xml version="1.0" encoding="UTF-8" standalone="no"?>
<svg width="72px" height="48px" viewBox="0 0 72 48" version="1.1" xmlns="http://www.w3.org/2000/svg" xmlns:xlink="http://www.w3.org/1999/xlink">
    <!-- Generator: Sketch 3.6.1 (26313) - http://www.bohemiancoding.com/sketch -->
    <title>mrcash</title>
    <desc>Created with Sketch.</desc>
    <defs></defs>
    <g id="Page-1" stroke="none" stroke-width="1" fill="none" fill-rule="evenodd">
        <g id="Footer_icons_02" transform="translate(-436.000000, -127.000000)">
            <g id="mrcash" transform="translate(436.000000, 127.000000)">
                <rect id="Rectangle-192-Copy-3" fill-opacity="0.0999773551" fill="#FFFFFF" x="0" y="0" width="72" height="48"></rect>
                <g id="Bancontact_Mister_Cash-Copy" transform="translate(11.000000, 9.000000)">
                    <g id="Group-4">
                        <path d="M24.8845055,0.232245231 L45.9697642,0.232040481 C48.7612487,0.232040481 49.6286809,2.28916373 49.6286809,3.74247923 L49.6286809,26.2854542 C49.6286809,27.6843062 48.7614511,29.7960977 45.9699666,29.7960977 L3.7990445,29.7960977 C1.03467354,29.7960977 0.140330137,27.6843062 0.140330137,26.2854542 L0.140330137,3.74247923 C0.140330137,2.28916373 1.03467354,0.232245231 3.7990445,0.232245231 L24.8845055,0.232245231 L24.8845055,0.232245231 Z" id="Fill-2" fill="#FFFFFF"></path>
                        <path d="M24.8845055,0.232245231 L45.9697642,0.232040481 C48.7612487,0.232040481 49.6286809,2.28916373 49.6286809,3.74247923 L49.6286809,26.2854542 C49.6286809,27.6843062 48.7614511,29.7960977 45.9699666,29.7960977 L3.7990445,29.7960977 C1.03467354,29.7960977 0.140330137,27.6843062 0.140330137,26.2854542 L0.140330137,3.74247923 C0.140330137,2.28916373 1.03467354,0.232245231 3.7990445,0.232245231 L24.8845055,0.232245231 L24.8845055,0.232245231 Z" id="Stroke-3" stroke="#006EA9" stroke-width="0.581230769"></path>
                    </g>
                    <path d="M14.9642666,17.3743269 L22.6609465,17.3743269 L26.9699729,12.7399038 L34.6939379,12.7399038 L28.1354751,20.0890385 L3.88022038,20.0890385 L3.88022038,15.1802885 L16.8885802,15.1802885 L14.9642666,17.3743269" id="Fill-5" fill="#006EA9"></path>
                    <path d="M34.6939379,12.7399038 L26.9699729,12.7399038 L22.6609465,17.4017308 L14.910271,17.4017308 L21.4687337,10.0523077 L45.7509863,10.0523077 L45.7509863,14.9336538 L32.7426264,14.9336538 L34.6939379,12.7399038" id="Fill-6" fill="#FDE141"></path>
                    <path d="M42.6344599,8.2425 C42.282052,8.46173077 41.8213656,8.57134615 41.387677,8.57134615 C40.1411814,8.57134615 39.0299621,7.63903846 39.0299621,6.35019231 C39.0299621,5.06134615 40.0326156,4.12903846 41.3063963,4.12903846 C41.7673699,4.12903846 42.282052,4.21125 42.6344599,4.43076923 L42.6344599,5.80182692 C42.3633327,5.55490385 41.9569292,5.47269231 41.4962428,5.47269231 C41.0625542,5.47269231 40.5475849,5.82923077 40.5475849,6.405 C40.5475849,6.89884615 41.0625542,7.20028846 41.4962428,7.20028846 C41.983927,7.20028846 42.282052,7.17288462 42.6344599,6.89884615 L42.6344599,8.2425" id="Fill-7" fill="#006EA9"></path>
                    <path d="M45.8052691,7.20028846 L45.8052691,8.2425 C44.6940499,9.06519231 43.4202691,8.37951923 43.4202691,7.41980769 L43.4202691,5.50038462 L42.878302,5.50038462 L42.878302,4.23865385 L43.4202691,4.23865385 L43.4202691,3.22413462 L44.937892,2.40115385 L44.937892,4.23865385 L45.8052691,4.23865385 L45.8052691,5.39048077 L45.0191727,5.39048077 L45.0191727,7.17288462 C45.0191727,7.50201923 45.561427,7.47461538 45.8052691,7.20028846" id="Fill-8" fill="#006EA9"></path>
                    <path d="M34.8292142,5.61 L35.0733436,4.43076923 C36.5909664,3.90951923 38.7591221,4.21125 38.7591221,5.58230769 L38.7591221,8.48913462 L37.3497778,8.48913462 L37.2954949,8.35211538 C36.6449621,8.76346154 34.2602493,8.95557692 34.5853721,7.06326923 C34.7752186,5.93884615 36.0489993,5.66480769 36.8348085,5.66480769 C37.2414993,5.66480769 37.4040607,5.28086538 36.8890914,5.25346154 C36.428405,5.22576923 35.5070322,5.28086538 34.8292142,5.61" id="Fill-9" fill="#006EA9"></path>
                    <path d="M9.24618316,5.61 L9.46302746,4.43076923 C10.9806503,3.90951923 13.1485188,4.21125 13.1485188,5.58230769 L13.1485188,8.48913462 L11.7121767,8.48913462 L11.6851788,8.35211538 C11.061931,8.76346154 8.59565029,8.95557692 8.975056,7.06326923 C9.16490246,5.93884615 10.4113981,5.66480769 11.1974946,5.66480769 C11.6038981,5.66480769 11.7664595,5.28086538 11.2787753,5.25346154 C10.8180889,5.22576923 9.869431,5.28086538 9.24618316,5.61" id="Fill-10" fill="#006EA9"></path>
                    <path d="M26.6178522,6.405 C26.6178522,7.69384615 25.5609158,8.59903846 24.2871351,8.59903846 C23.0133544,8.59903846 21.9294202,7.63903846 21.9294202,6.35019231 C21.9294202,5.08875 23.0133544,4.10163462 24.2601373,4.10163462 C25.5609158,4.10163462 26.6178522,5.08875 26.6178522,6.405" id="Fill-11" fill="#006EA9"></path>
                    <path d="M34.3145322,7.20028846 L34.3145322,8.2425 C33.176315,9.06519231 31.9295322,8.37951923 31.9295322,7.41980769 L31.9295322,5.50038462 L31.387565,5.50038462 L31.387565,4.23865385 L31.9295322,4.23865385 L31.9295322,3.22413462 L33.47444,2.40115385 L33.47444,4.23865385 L34.3145322,4.23865385 L34.3145322,5.39048077 L33.5014379,5.39048077 L33.5014379,7.17288462 C33.5014379,7.50201923 34.0704028,7.47461538 34.3145322,7.20028846" id="Fill-12" fill="#006EA9"></path>
                    <path d="M6.72561958,2.09971154 C8.13496387,2.09971154 9.16490246,3.99173077 7.86412392,5.17096154 C9.49002529,6.18576923 8.75821171,8.43432692 6.94246387,8.46173077 L3.90721821,8.46173077 L3.90721821,2.09971154 L6.72561958,2.09971154" id="Fill-13" fill="#006EA9"></path>
                    <path d="M21.658293,8.2425 C21.3058851,8.46173077 20.8994816,8.57134615 20.4387952,8.57134615 C19.1650145,8.57134615 18.0810802,7.63903846 18.0810802,6.35019231 C18.0810802,5.06134615 19.0837337,4.12903846 20.3305166,4.12903846 C20.791203,4.12903846 21.3058851,4.21125 21.658293,4.43076923 L21.658293,5.80182692 C21.360168,5.55490385 21.0077601,5.47269231 20.5470737,5.47269231 C20.0863873,5.47269231 19.5717052,5.82923077 19.5717052,6.405 C19.5717052,6.89884615 20.1136723,7.20028846 20.5470737,7.20028846 C21.0077601,7.20028846 21.3058851,7.17288462 21.658293,6.89884615 L21.658293,8.2425" id="Fill-14" fill="#006EA9"></path>
                    <path d="M17.7829552,5.71932692 L17.7829552,8.48913462 L16.2653324,8.48913462 L16.2653324,6.10326923 C16.2653324,5.25346154 15.0455473,5.28086538 15.0455473,6.10326923 L15.0455473,8.48913462 L13.5279245,8.48913462 L13.5279245,4.23865385 L15.0728324,4.23865385 L15.0728324,4.59519231 C16.3466131,3.63548077 17.7829552,4.51298077 17.7829552,5.71932692" id="Fill-15" fill="#006EA9"></path>
                    <path d="M31.1707207,5.71932692 L31.1707207,8.48913462 L29.6530979,8.48913462 L29.6530979,6.10326923 C29.6530979,5.25346154 28.4336001,5.28086538 28.4336001,6.10326923 L28.4336001,8.48913462 L26.91569,8.48913462 L26.91569,4.23865385 L28.4336001,4.23865385 L28.4336001,4.59519231 C29.7343786,3.63548077 31.1707207,4.51298077 31.1707207,5.71932692" id="Fill-16" fill="#006EA9"></path>
                    <path d="M36.8890914,5.25346154 C37.4040607,5.28086538 37.2414993,5.66480769 36.8348085,5.66480769 C36.0489993,5.66480769 34.7752186,5.93884615 34.5853721,7.06326923 C34.2602493,8.95557692 36.6449621,8.76346154 37.2954949,8.35211538 L37.3497778,8.48913462 L38.7591221,8.48913462 L38.7591221,5.58230769 C38.7591221,4.21125 36.5909664,3.90951923 35.0733436,4.43076923 L34.8292142,5.61 C35.5070322,5.28086538 36.428405,5.22576923 36.8890914,5.25346154" id="Fill-17" fill="#006EA9"></path>
                    <path d="M11.2787753,5.25346154 C11.7664595,5.28086538 11.6038981,5.66480769 11.1974946,5.66480769 C10.4113981,5.66480769 9.16490246,5.93884615 8.975056,7.06326923 C8.59565029,8.95557692 11.061931,8.76346154 11.6851788,8.35211538 L11.7121767,8.48913462 L13.1485188,8.48913462 L13.1485188,5.58230769 C13.1485188,4.21125 10.9806503,3.90951923 9.46302746,4.43076923 L9.24618316,5.61 C9.869431,5.28086538 10.8180889,5.22576923 11.2787753,5.25346154" id="Fill-18" fill="#006EA9"></path>
                    <path d="M24.2601373,4.10163462 C23.0133544,4.10163462 21.9294202,5.08875 21.9294202,6.35019231 C21.9294202,7.63903846 23.0133544,8.59903846 24.2871351,8.59903846 C25.5609158,8.59903846 26.6178522,7.69384615 26.6178522,6.405 C26.6178522,5.08875 25.5609158,4.10163462 24.2601373,4.10163462" id="Fill-19" fill="#006EA9"></path>
                    <path d="M33.5014379,7.17288462 L33.5014379,5.39048077 L34.3145322,5.39048077 L34.3145322,4.23865385 L33.47444,4.23865385 L33.47444,2.40115385 L31.9295322,3.22413462 L31.9295322,4.23865385 L31.387565,4.23865385 L31.387565,5.50038462 L31.9295322,5.50038462 L31.9295322,7.41980769 C31.9295322,8.37951923 33.176315,9.06519231 34.3145322,8.2425 L34.3145322,7.20028846 C34.0704028,7.47461538 33.5014379,7.50201923 33.5014379,7.17288462" id="Fill-20" fill="#006EA9"></path>
                    <path d="M3.90721821,2.09971154 L3.90721821,8.46173077 L6.94246387,8.46173077 C8.75821171,8.43432692 9.49002529,6.18576923 7.86412392,5.17096154 C9.16490246,3.99173077 8.13496387,2.09971154 6.72561958,2.09971154 L3.90721821,2.09971154" id="Fill-21" fill="#006EA9"></path>
                    <path d="M21.658293,6.89884615 C21.3058851,7.17288462 21.0077601,7.20028846 20.5470737,7.20028846 C20.1136723,7.20028846 19.5717052,6.89884615 19.5717052,6.405 C19.5717052,5.82923077 20.0863873,5.47269231 20.5470737,5.47269231 C21.0077601,5.47269231 21.360168,5.55490385 21.658293,5.80182692 L21.658293,4.43076923 C21.3058851,4.21125 20.791203,4.12903846 20.3305166,4.12903846 C19.0837337,4.12903846 18.0810802,5.06134615 18.0810802,6.35019231 C18.0810802,7.63903846 19.1650145,8.57134615 20.4387952,8.57134615 C20.8994816,8.57134615 21.3058851,8.46173077 21.658293,8.2425 L21.658293,6.89884615" id="Fill-22" fill="#006EA9"></path>
                    <path d="M15.0728324,4.59519231 L15.0728324,4.23865385 L13.5279245,4.23865385 L13.5279245,8.48913462 L15.0455473,8.48913462 L15.0455473,6.10326923 C15.0455473,5.28086538 16.2653324,5.25346154 16.2653324,6.10326923 L16.2653324,8.48913462 L17.7829552,8.48913462 L17.7829552,5.71932692 C17.7829552,4.51298077 16.3466131,3.63548077 15.0728324,4.59519231" id="Fill-23" fill="#006EA9"></path>
                    <path d="M28.4336001,4.59519231 L28.4336001,4.23865385 L26.91569,4.23865385 L26.91569,8.48913462 L28.4336001,8.48913462 L28.4336001,6.10326923 C28.4336001,5.28086538 29.6530979,5.25346154 29.6530979,6.10326923 L29.6530979,8.48913462 L31.1707207,8.48913462 L31.1707207,5.71932692 C31.1707207,4.51298077 29.7343786,3.63548077 28.4336001,4.59519231" id="Fill-24" fill="#006EA9"></path>
                    <path d="M42.6344599,6.89884615 C42.282052,7.17288462 41.983927,7.20028846 41.4962428,7.20028846 C41.0625542,7.20028846 40.5475849,6.89884615 40.5475849,6.405 C40.5475849,5.82923077 41.0625542,5.47269231 41.4962428,5.47269231 C41.9569292,5.47269231 42.3633327,5.55490385 42.6344599,5.80182692 L42.6344599,4.43076923 C42.282052,4.21125 41.7673699,4.12903846 41.3063963,4.12903846 C40.0326156,4.12903846 39.0299621,5.06134615 39.0299621,6.35019231 C39.0299621,7.63903846 40.1411814,8.57134615 41.387677,8.57134615 C41.8213656,8.57134615 42.282052,8.46173077 42.6344599,8.2425 L42.6344599,6.89884615" id="Fill-25" fill="#006EA9"></path>
                    <path d="M45.0191727,7.17288462 L45.0191727,5.39048077 L45.8052691,5.39048077 L45.8052691,4.23865385 L44.937892,4.23865385 L44.937892,2.40115385 L43.4202691,3.22413462 L43.4202691,4.23865385 L42.878302,4.23865385 L42.878302,5.50038462 L43.4202691,5.50038462 L43.4202691,7.41980769 C43.4202691,8.37951923 44.6940499,9.06519231 45.8052691,8.2425 L45.8052691,7.20028846 C45.561427,7.47461538 45.0191727,7.50201923 45.0191727,7.17288462" id="Fill-26" fill="#006EA9"></path>
                    <path d="M25.1542251,6.405 C25.1542251,6.87144231 24.7478215,7.25538462 24.2871351,7.25538462 C23.8264487,7.25538462 23.447043,6.87144231 23.447043,6.35019231 C23.447043,5.80182692 23.8264487,5.50038462 24.2871351,5.50038462 C24.7478215,5.50038462 25.1542251,5.80182692 25.1542251,6.405" id="Fill-27" fill="#006EA9"></path>
                    <path d="M5.64168533,5.91144231 L6.31921604,5.91144231 C7.15930816,5.91144231 7.24058887,7.20028846 6.34621387,7.20028846 L5.64168533,7.20028846 L5.64168533,5.91144231" id="Fill-28" fill="#006EA9"></path>
                    <path d="M11.630896,6.62451923 L11.630896,7.14548077 C11.630896,7.72153846 10.4926788,7.88596154 10.4926788,7.2825 C10.4926788,6.73413462 11.3057731,6.56971154 11.630896,6.62451923" id="Fill-29" fill="#006EA9"></path>
                    <path d="M37.2414993,6.62451923 L37.2414993,7.14548077 C37.2414993,7.72153846 36.13028,7.88596154 36.13028,7.2825 C36.13028,6.73413462 36.9430871,6.56971154 37.2414993,6.62451923" id="Fill-30" fill="#006EA9"></path>
                    <path d="M6.31921604,3.38855769 C7.10502529,3.74509615 6.83418533,4.59519231 6.34621387,4.59519231 L5.64168533,4.59519231 L5.64168533,3.38855769 C5.64168533,3.36115385 6.12965679,3.33375 6.31921604,3.38855769" id="Fill-31" fill="#006EA9"></path>
                    <path d="M24.2871351,5.50038462 C23.8264487,5.50038462 23.447043,5.80182692 23.447043,6.35019231 C23.447043,6.87144231 23.8264487,7.25538462 24.2871351,7.25538462 C24.7478215,7.25538462 25.1542251,6.87144231 25.1542251,6.405 C25.1542251,5.80182692 24.7478215,5.50038462 24.2871351,5.50038462" id="Fill-32" fill="#FFFFFF"></path>
                    <path d="M36.13028,7.2825 C36.13028,7.88596154 37.2414993,7.72153846 37.2414993,7.14548077 L37.2414993,6.62451923 C36.9430871,6.56971154 36.13028,6.73413462 36.13028,7.2825" id="Fill-33" fill="#FFFFFF"></path>
                    <path d="M5.64168533,3.38855769 L5.64168533,4.59519231 L6.34621387,4.59519231 C6.83418533,4.59519231 7.10502529,3.74509615 6.31921604,3.38855769 C6.12965679,3.33375 5.64168533,3.36115385 5.64168533,3.38855769" id="Fill-34" fill="#FFFFFF"></path>
                    <path d="M10.4926788,7.2825 C10.4926788,7.88596154 11.630896,7.72153846 11.630896,7.14548077 L11.630896,6.62451923 C11.3057731,6.56971154 10.4926788,6.73413462 10.4926788,7.2825" id="Fill-35" fill="#FFFFFF"></path>
                    <path d="M5.64168533,7.20028846 L6.34621387,7.20028846 C7.24058887,7.20028846 7.15930816,5.91144231 6.31921604,5.91144231 L5.64168533,5.91144231 L5.64168533,7.20028846" id="Fill-36" fill="#FFFFFF"></path>
                    <path d="M22.7425145,25.8204808 C22.7425145,24.3398077 22.1459772,23.3798077 20.6556395,23.3798077 C19.2462952,23.3798077 18.406203,24.4494231 18.406203,25.6560577 C18.406203,26.9723077 19.4088566,27.9320192 20.8182009,27.9320192 C22.0376987,27.9320192 22.6609465,27.4384615 22.6609465,27.4384615 L22.6609465,26.1770192 C22.1459772,26.4513462 21.5770123,26.6157692 21.1706087,26.6157692 C20.3575145,26.6157692 19.9238259,26.3965385 19.9238259,25.8204808 L22.7425145,25.8204808" id="Fill-37" fill="#006EA9"></path>
                    <path d="M6.83418533,26.04 L8.08096821,24.2299038 L8.08096821,27.8224038 L9.70686958,27.8224038 L9.73386741,21.5974038 L8.08096821,21.5974038 L6.83418533,23.4623077 L5.56040462,21.5974038 L3.90721821,21.5974038 L3.93450325,27.8224038 L5.56040462,27.8224038 L5.56040462,24.2299038 L6.83418533,26.04" id="Fill-38" fill="#006EA9"></path>
                    <path d="M24.5039794,25.3269231 C24.6665408,24.9703846 25.0186615,24.6686538 25.4796351,24.6686538 C25.7234772,24.6686538 25.9946044,24.7782692 26.1841637,24.9155769 L26.1841637,23.5719231 C26.0486001,23.4072115 25.8317558,23.3524038 25.6151987,23.3524038 C25.2355058,23.3524038 24.7205365,23.5719231 24.5039794,23.8459615 L24.5039794,23.4072115 L23.0406395,23.4072115 L23.0406395,27.8224038 L24.5039794,27.8224038 L24.5039794,25.3269231" id="Fill-39" fill="#006EA9"></path>
                    <path d="M12.0375867,27.5480769 C12.552556,27.7675962 13.1758038,27.8498077 13.5822074,27.8498077 C15.1541131,27.8498077 15.6147995,27.0271154 15.6147995,26.3417308 C15.6147995,25.5464423 14.8017052,25.1074038 14.0701788,24.9977885 C13.9616131,24.9977885 13.6634881,24.9155769 13.6634881,24.7782692 C13.6634881,24.6686538 13.7447688,24.5313462 14.0971767,24.5313462 C14.3953017,24.5313462 14.9372688,24.64125 15.208396,24.7782692 L15.1541131,23.6267308 C14.7477095,23.4897115 14.1784574,23.3798077 13.7447688,23.3798077 C12.850681,23.3798077 12.0645845,23.9284615 12.0645845,24.8059615 C12.0645845,25.4916346 12.552556,25.8481731 13.3383652,26.0125962 C13.6634881,26.04 13.9616131,26.1770192 13.9616131,26.3417308 C13.9616131,26.5609615 13.7447688,26.6157692 13.5279245,26.6157692 C13.3383652,26.6157692 12.850681,26.6705769 12.0375867,26.3417308 L12.0375867,27.5480769" id="Fill-40" fill="#006EA9"></path>
                    <path d="M17.5931087,26.47875 L17.5931087,24.6686538 L18.4334881,24.6686538 L18.4334881,23.4897115 L17.5388259,23.4897115 L17.5388259,21.5974038 L15.9942052,22.4200962 L15.9942052,23.4897115 L15.4522381,23.4897115 L15.4522381,24.7511538 L15.9942052,24.7511538 L15.9942052,26.7256731 C15.9942052,27.7127885 17.2679859,28.3710577 18.4334881,27.5480769 L18.4334881,26.47875 C18.1893587,26.7256731 17.5931087,26.7804808 17.5931087,26.47875" id="Fill-41" fill="#006EA9"></path>
                    <path d="M10.140271,23.4897115 L11.7664595,23.4897115 L11.7664595,27.7675962 L10.140271,27.7675962 L10.140271,23.4897115 Z" id="Fill-42" fill="#006EA9"></path>
                    <path d="M10.9533652,23.3524038 C11.4413367,23.3524038 11.8477402,22.9410577 11.8477402,22.4475 C11.8477402,21.9813462 11.4413367,21.5974038 10.9533652,21.5974038 C10.4926788,21.5974038 10.1132731,21.9813462 10.1132731,22.4475 C10.1132731,22.9410577 10.4926788,23.3524038 10.9533652,23.3524038" id="Fill-43" fill="#006EA9"></path>
                    <path d="M37.6749007,27.5480769 C38.1898699,27.7675962 38.813405,27.8498077 39.2198085,27.8498077 C40.791427,27.8498077 41.2793985,27.0271154 41.2793985,26.3417308 C41.2793985,25.5464423 40.4663042,25.1074038 39.7074928,24.9977885 C39.5992142,24.9977885 39.3010892,24.9155769 39.3010892,24.7782692 C39.3010892,24.6686538 39.3823699,24.5313462 39.7617757,24.5313462 C40.0599007,24.5313462 40.5748699,24.64125 40.8727077,24.7782692 L40.791427,23.6267308 C40.3850235,23.4897115 39.8160585,23.3798077 39.3823699,23.3798077 C38.4879949,23.3798077 37.7021857,23.9284615 37.7021857,24.8059615 C37.7021857,25.4916346 38.1898699,25.8481731 38.9756792,26.0125962 C39.3010892,26.04 39.5992142,26.1770192 39.5992142,26.3417308 C39.5992142,26.5609615 39.3823699,26.6157692 39.1655257,26.6157692 C38.9756792,26.6157692 38.4879949,26.6705769 37.6749007,26.3417308 L37.6749007,27.5480769" id="Fill-44" fill="#006EA9"></path>
                    <path d="M32.9051879,26.0125962 C32.3902186,26.3965385 31.983815,26.47875 31.3062843,26.47875 C30.2763457,26.47875 29.3549729,25.6286538 29.3549729,24.7511538 C29.3549729,23.7911538 29.8699422,22.88625 31.3062843,22.88625 C31.95653,22.88625 32.4984971,22.9958654 32.9051879,23.3798077 L32.9051879,21.8991346 C32.3902186,21.5974038 31.68569,21.5151923 31.0624422,21.5151923 C29.1924115,21.5151923 27.7560694,22.8588462 27.7560694,24.6963462 C27.7560694,26.5061538 29.3279751,27.8775 31.1707207,27.8775 C31.7939686,27.8775 32.3902186,27.7401923 32.9051879,27.4384615 L32.9051879,26.0125962" id="Fill-45" fill="#006EA9"></path>
                    <path d="M35.5070322,24.4494231 C36.0217142,24.4768269 35.8591528,24.8881731 35.4527493,24.8881731 C34.639655,24.8881731 33.3388764,25.1625 33.176315,26.2866346 C32.8239072,28.2063462 35.2629028,28.0416346 35.9134357,27.6305769 L35.9677186,27.7401923 L37.4310585,27.7401923 L37.4310585,24.7782692 C37.4310585,23.3798077 35.2086199,23.1054808 33.6370014,23.6267308 L33.4201572,24.8059615 C34.0976879,24.4768269 35.0460585,24.4220192 35.5070322,24.4494231" id="Fill-46" fill="#006EA9"></path>
                    <path d="M43.0138656,23.8188462 L43.0138656,21.5974038 L41.4962428,21.5974038 L41.4962428,27.8224038 L43.0138656,27.8224038 L43.0138656,25.3817308 C43.0138656,24.5590385 44.2603613,24.5313462 44.2603613,25.3817308 L44.2603613,27.8224038 L45.8052691,27.8224038 L45.8052691,24.9977885 C45.8052691,23.7363462 44.3419292,22.8588462 43.0138656,23.8188462" id="Fill-47" fill="#006EA9"></path>
                    <path d="M19.869543,24.9703846 C19.9508237,24.5590385 20.2762337,24.4220192 20.5743587,24.4220192 C20.8724837,24.4220192 21.2518895,24.5590385 21.2518895,24.9703846 L19.869543,24.9703846" id="Fill-48" fill="#FFFFFF"></path>
                    <path d="M35.8591528,25.8481731 L35.8591528,26.3691346 C35.8591528,26.9723077 34.7209357,27.1096154 34.7209357,26.5061538 C34.7209357,25.9577885 35.5610278,25.8204808 35.8591528,25.8481731" id="Fill-49" fill="#FFFFFF"></path>
                </g>
            </g>
        </g>
    </g>
</svg>