<svg xmlns="http://www.w3.org/2000/svg" width="83" height="48">
  <g fill="none" fill-rule="evenodd">
    <path d="M0 0h84v48H0z"/>
    <path fill="#FFF" d="M16 39.986087h51V8.1831884H16"/>
    <path fill="#F1AD2B" d="M16.84929167 39.1710145H66.1497639v-4.3408696H16.84929167"/>
    <path fill="#172E66" d="M16.84929167 13.3586087H66.1497639V9.01773913H16.84929167M41.0742917 18.1409855l-2.5986389 11.9315942h-3.1431111l2.598875-11.9315942h3.142875zm13.2231666 7.7045797l1.6546667-4.4809275.9517639 4.4809275h-2.6064306zm3.5086111 4.2270145h2.9060556l-2.5391389-11.9315942h-2.6808055c-.6044445 0-1.1135.3441159-1.3389862.8746667L49.436875 30.0725797h3.3010694l.6552084-1.7817971h4.0318333l.3810833 1.7817971zm-8.2053333-3.8951884c.0136945-3.1487536-4.4322778-3.3233623-4.4027639-4.7304348.0096806-.4275942.4247639-.8827826 1.3328472-.9991884.4500278-.0570435 1.6919723-.1031884 3.0999028.5337971l.5506111-2.5312464c-.7565-.2685217-1.7295139-.5273043-2.9400555-.5273043-3.1072222 0-5.2931389 1.6208696-5.3106111 3.9438841-.0198334 1.7177971 1.5616389 2.6757101 2.7504583 3.2477681 1.2256528.5845797 1.6364861.9597681 1.6305833 1.4822029-.0085.8004637-.9777361 1.1550145-1.8796805 1.1682318-1.5812361.0243479-2.4975834-.4194782-3.2281111-.7540869l-.5704445 2.6158841c.7354861.3304347 2.091.6184347 3.4942084.6330434 3.3031944 0 5.463375-1.601855 5.4730555-4.0825507zm-13.0175139-8.0364058l-5.0926805 11.9315942h-3.3220834l-2.5063194-9.5223188c-.15181946-.5852754-.2842778-.8006957-.74634723-1.0478841-.75579167-.4034782-2.0036389-.7805217-3.1006111-1.0149565l.07413887-.3464348h5.34838886c.6814167 0 1.294125.4452174 1.4499584 1.216l1.323875 6.9048116 3.2696666-8.1208116h3.3020139z"/>
  </g>
</svg>
